<svg xmlns="http://www.w3.org/2000/svg" width="80" height="80" fill="none" viewBox="0 0 80 80">
    <g clip-path="url(#clip0)">
        <path fill="#000" d="M80 19.688c0-1.335-.138-2.675-.41-3.984-.22-1.067-1.148-1.84-2.237-1.867-1.088-.025-2.053.701-2.326 1.756-.98 3.79-4.397 6.438-8.308 6.438-4.739 0-8.594-3.855-8.594-8.593 0-3.911 2.648-7.328 6.438-8.308 1.055-.273 1.783-1.237 1.757-2.326-.027-1.09-.8-2.017-1.867-2.238-1.31-.272-2.65-.41-3.984-.41-4.958 0-9.685 1.86-13.31 5.238-2.787 2.596-4.727 5.902-5.636 9.532-2.46-.96-5.134-1.489-7.93-1.489-11.33 0-20.677 8.66-21.768 19.71C5.13 34.22 0 40.038 0 47.03c0 6.601 4.572 12.153 10.715 13.659l-1.94 4.658c-.448 1.074-.04 2.313.957 2.911l4.513 2.708-2.346 5.631c-.498 1.195.067 2.567 1.262 3.065.295.123.6.18.9.18.918 0 1.79-.542 2.165-1.442l3.125-7.5c.447-1.074.04-2.313-.958-2.911l-4.513-2.708 1.745-4.188h7.942l-1.772 4.254c-.448 1.074-.04 2.313.957 2.911l4.514 2.708-2.346 5.631c-.498 1.195.067 2.567 1.262 3.065.295.123.6.18.9.18.918 0 1.79-.542 2.165-1.442l3.125-7.5c.447-1.074.04-2.313-.958-2.911l-4.513-2.708 1.745-4.188h7.942l-1.772 4.254c-.448 1.074-.04 2.313.957 2.911l4.514 2.708-2.346 5.631c-.498 1.195.067 2.567 1.262 3.065.294.123.6.18.9.18.918 0 1.79-.542 2.164-1.442l3.125-7.5c.448-1.074.04-2.313-.957-2.911l-4.514-2.708 1.745-4.188h7.943l-1.772 4.254c-.448 1.074-.04 2.313.957 2.911l4.514 2.708-2.346 5.631c-.498 1.195.067 2.567 1.262 3.065.294.123.6.18.9.18.918 0 1.79-.542 2.164-1.442l3.125-7.5c.448-1.074.04-2.313-.957-2.911l-4.514-2.708 1.783-4.28c7.004-.797 12.462-6.758 12.462-13.97 0-3.074-.991-5.92-2.67-8.236C73.35 36.926 80 29.069 80 19.688zM16.42 35.31c.118-9.377 7.77-17.185 17.174-17.185 8.758 0 16.006 6.585 17.056 15.064-2.814.497-5.406 1.836-7.469 3.898-.915.916-.915 2.4 0 3.315.458.458 1.058.687 1.658.687.6 0 1.2-.23 1.657-.687 1.77-1.77 4.125-2.746 6.629-2.746 5.17 0 9.375 4.206 9.375 9.375 0 5.17-4.206 9.375-9.375 9.375H14.062c-5.169 0-9.374-4.205-9.374-9.375 0-4.421 3.077-8.135 7.201-9.118.253 2.119.81 4.178 1.67 6.15.385.88 1.246 1.406 2.15 1.406.313 0 .63-.063.936-.196 1.186-.518 1.728-1.9 1.21-3.086-.949-2.175-1.432-4.489-1.435-6.877zm44.049-.779c-.321 0-.648-.015-.975-.036-1.278-.651-2.667-1.113-4.132-1.348-.654-6.63-4.282-12.398-9.525-15.953.943-5.546 4.99-10.032 10.225-11.676-1.661 2.232-2.624 4.986-2.624 7.92 0 7.323 5.957 13.28 13.28 13.28 2.939 0 5.696-.965 7.929-2.63-1.88 6.043-7.525 10.443-14.178 10.443z"/>
    </g>
    <defs>
        <clipPath id="clip0">
            <path fill="#fff" d="M0 0H80V80H0z"/>
        </clipPath>
    </defs>
</svg>
