<svg xmlns="http://www.w3.org/2000/svg" width="80" height="80" fill="none" viewBox="0 0 80 80">
    <path fill="#000" d="M77.656 21.875h-3.125c-1.294 0-2.344 1.05-2.344 2.344 0 1.294 1.05 2.343 2.344 2.343h3.125c1.295 0 2.344-1.049 2.344-2.343 0-1.295-1.05-2.344-2.344-2.344zM69.04 13.304c.6 0 1.2-.229 1.657-.686l2.21-2.21c.915-.915.915-2.4 0-3.314-.915-.916-2.4-.916-3.315 0l-2.21 2.21c-.915.914-.915 2.398 0 3.314.458.457 1.058.686 1.657.686zM55.781 7.813c1.295 0 2.344-1.05 2.344-2.344V2.344c0-1.295-1.05-2.344-2.344-2.344-1.294 0-2.343 1.05-2.343 2.344v3.125c0 1.294 1.049 2.343 2.343 2.343zM40.866 12.618c.458.457 1.057.686 1.657.686.6 0 1.2-.229 1.657-.686.916-.916.916-2.4 0-3.315l-2.21-2.21c-.915-.915-2.399-.915-3.314 0-.916.916-.916 2.4 0 3.315l2.21 2.21zM70.697 35.82c-.916-.916-2.4-.916-3.315 0-.915.915-.915 2.399 0 3.314l2.21 2.21c.458.457 1.058.686 1.657.686.6 0 1.2-.229 1.657-.686.916-.916.916-2.4 0-3.315l-2.21-2.21z"/>
    <path fill="#000" d="M61.98 35.96c4.208-2.231 7.083-6.656 7.083-11.741 0-7.324-5.959-13.282-13.282-13.282-4.34 0-8.337 2.112-10.798 5.551-3.32-2.033-7.22-3.207-11.39-3.207-11.33 0-20.677 8.66-21.768 19.71C5.13 34.064 0 39.88 0 46.874c0 7.754 6.308 14.063 14.063 14.063h39.062c7.754 0 14.063-6.309 14.063-14.063 0-4.4-2.033-8.335-5.208-10.915zM55.78 15.625c4.739 0 8.594 3.855 8.594 8.594 0 4.738-3.855 8.593-8.594 8.593-.146 0-.293-.005-.44-.013-.567-5.264-3.007-9.975-6.64-13.449 1.584-2.304 4.216-3.725 7.08-3.725zM53.125 56.25H14.062c-5.169 0-9.374-4.206-9.374-9.375 0-4.421 3.077-8.135 7.201-9.118.253 2.119.81 4.178 1.67 6.15.385.88 1.246 1.406 2.15 1.406.313 0 .63-.063.936-.196 1.186-.518 1.728-1.9 1.21-3.086-.949-2.175-1.432-4.49-1.435-6.878.119-9.376 7.77-17.184 17.174-17.184 8.758 0 16.006 6.585 17.056 15.063-2.814.498-5.406 1.837-7.469 3.9-.915.915-.915 2.399 0 3.314.458.458 1.058.686 1.657.686.6 0 1.2-.228 1.658-.686 1.77-1.77 4.125-2.746 6.629-2.746 5.17 0 9.375 4.206 9.375 9.375 0 5.17-4.206 9.375-9.375 9.375zM62.234 68.281c-.647-1.121-2.08-1.505-3.201-.858l-1.22.705v-1.41c0-1.294-1.05-2.343-2.344-2.343-1.295 0-2.344 1.05-2.344 2.344v1.409l-1.22-.705c-1.122-.647-2.555-.263-3.202.858-.647 1.121-.263 2.555.858 3.202l1.22.704-1.22.705c-1.121.647-1.505 2.08-.858 3.202.434.752 1.222 1.172 2.032 1.172.398 0 .8-.101 1.17-.314l1.22-.705v1.41c0 1.294 1.05 2.343 2.344 2.343 1.294 0 2.343-1.05 2.343-2.344v-1.409l1.221.705c.369.213.772.314 1.17.314.81 0 1.597-.42 2.031-1.172.648-1.121.264-2.555-.857-3.202l-1.22-.704 1.22-.705c1.12-.647 1.505-2.08.857-3.202zM40.36 68.281c-.648-1.121-2.081-1.505-3.202-.858l-1.22.705v-1.41c0-1.294-1.05-2.343-2.344-2.343-1.295 0-2.344 1.05-2.344 2.344v1.409l-1.22-.705c-1.122-.647-2.555-.263-3.202.858-.647 1.121-.263 2.555.858 3.202l1.22.704-1.22.705c-1.121.647-1.505 2.08-.858 3.202.434.752 1.222 1.172 2.032 1.172.398 0 .8-.101 1.17-.314l1.22-.705v1.41C31.25 78.95 32.3 80 33.594 80c1.294 0 2.343-1.05 2.343-2.344v-1.409l1.221.705c.369.213.772.314 1.17.314.81 0 1.597-.42 2.031-1.172.648-1.121.264-2.555-.857-3.202l-1.22-.704 1.22-.705c1.12-.647 1.505-2.08.857-3.202zM18.485 68.281c-.648-1.121-2.081-1.505-3.202-.858l-1.22.705v-1.41c0-1.294-1.05-2.343-2.344-2.343-1.295 0-2.344 1.05-2.344 2.344v1.409l-1.22-.705c-1.122-.647-2.555-.263-3.202.858-.647 1.121-.263 2.555.858 3.202l1.22.704-1.22.705c-1.121.647-1.505 2.08-.858 3.202.434.752 1.222 1.172 2.032 1.172.398 0 .8-.101 1.17-.314l1.22-.705v1.41c0 1.294 1.05 2.343 2.344 2.343 1.294 0 2.344-1.05 2.344-2.344v-1.409l1.22.705c.369.213.772.314 1.17.314.81 0 1.598-.42 2.032-1.172.647-1.121.263-2.555-.858-3.202l-1.22-.704 1.22-.705c1.12-.647 1.505-2.08.858-3.202z"/>
</svg>
