<svg xmlns="http://www.w3.org/2000/svg" width="80" height="80" fill="none" viewBox="0 0 80 80">
    <g clip-path="url(#clip0)">
        <path fill="#000" d="M80 29.063c0-1.335-.138-2.675-.41-3.984-.22-1.067-1.148-1.84-2.237-1.867-1.084-.026-2.053.7-2.326 1.756-.98 3.79-4.397 6.438-8.308 6.438-4.739 0-8.594-3.855-8.594-8.593 0-3.911 2.648-7.328 6.438-8.308 1.055-.273 1.783-1.237 1.756-2.326-.026-1.09-.8-2.017-1.867-2.238-1.309-.272-2.649-.41-3.983-.41-4.958 0-9.685 1.86-13.31 5.238-2.787 2.596-4.727 5.902-5.636 9.532-2.46-.96-5.134-1.488-7.93-1.488-11.33 0-20.677 8.66-21.768 19.709C5.13 43.596 0 49.413 0 56.406 0 64.16 6.308 70.47 14.063 70.47h39.062c7.754 0 14.063-6.309 14.063-14.063 0-3.073-.992-5.919-2.671-8.235C73.35 46.3 80 38.444 80 29.063zM53.125 65.78H14.062c-5.169 0-9.374-4.205-9.374-9.375 0-4.421 3.077-8.135 7.201-9.118.253 2.119.81 4.178 1.67 6.15.385.88 1.246 1.406 2.15 1.406.313 0 .63-.063.936-.196 1.186-.518 1.728-1.9 1.21-3.086-.949-2.175-1.432-4.489-1.435-6.878C16.54 35.31 24.19 27.5 33.594 27.5c8.758 0 16.006 6.585 17.056 15.064-2.814.497-5.406 1.836-7.469 3.899-.915.915-.915 2.399 0 3.314.458.458 1.058.687 1.657.687.6 0 1.2-.229 1.658-.687 1.77-1.77 4.125-2.746 6.629-2.746 5.17 0 9.375 4.206 9.375 9.375 0 5.17-4.206 9.375-9.375 9.375zm7.344-21.875c-.321 0-.648-.015-.975-.036-1.278-.651-2.667-1.113-4.132-1.348-.654-6.63-4.282-12.398-9.525-15.952.943-5.547 4.99-10.033 10.224-11.676-1.66 2.23-2.623 4.985-2.623 7.918 0 7.324 5.957 13.282 13.28 13.282 2.939 0 5.696-.966 7.929-2.631-1.88 6.043-7.525 10.443-14.178 10.443z"/>
    </g>
    <defs>
        <clipPath id="clip0">
            <path fill="#fff" d="M0 0H80V80H0z"/>
        </clipPath>
    </defs>
</svg>
